<svg xmlns="http://www.w3.org/2000/svg" viewBox="0 0 500 500"><defs><linearGradient id="_名称未設定グラデーション_13" x1="88.42" y1="527.87" x2="411.58" y2="-31.87" gradientUnits="userSpaceOnUse"><stop offset="0" stop-color="#9a5196"/><stop offset="1" stop-color="#662579"/></linearGradient><style>.cls-2{stroke-width:0;fill:#fff}</style></defs><rect y="-2" width="500" height="500" rx="50" ry="50" stroke-width="0" fill="url(#_名称未設定グラデーション_13)" id="_背景"/><g id="_文字"><path class="cls-2" d="M80.54 367.21c-.74-1.01-1.1-1.93-1.1-2.94 0-2.12 2.21-4.14 4.51-4.14 1.29 0 2.67.83 3.59 2.12l21.99 32.01 21.99-32.01c.92-1.29 2.3-2.12 3.59-2.12 2.39 0 4.51 2.02 4.51 4.14 0 1.01-.37 1.93-1.1 2.94l-24.84 34.13v32.01c0 2.02-1.75 3.5-4.14 3.5s-4.14-1.47-4.14-3.5v-32.01l-24.84-34.13zm92.73-5.98c10.49 0 18.77 2.12 25.39 6.53 9.75 6.44 15 17.2 15 30.63 0 23.73-15 37.35-41.03 37.35h-12.24c-6.44 0-9.75-3.31-9.75-9.94v-54.64c0-6.62 3.31-9.94 9.75-9.94h12.88zm-14.26 64.49c0 1.66.92 2.58 2.58 2.58h10.49c20.42 0 32.47-11.04 32.47-29.81s-11.32-29.81-31.92-29.81h-11.04c-1.75 0-2.58.83-2.58 2.58v54.46zm124.84-58.23c1.56 1.1 2.21 2.21 2.21 3.5 0 2.12-1.84 4.14-3.86 4.14-1.2 0-1.66-.18-3.86-1.93-5.06-3.86-10.95-5.8-17.48-5.8-15.64 0-26.86 13.16-26.86 31.46 0 7.73 2.21 15 6.07 20.05 5.06 6.53 13.06 10.58 20.97 10.58s14.9-2.39 19.6-6.81c.92-.83 1.93-1.29 2.94-1.29 2.12 0 4.05 1.93 4.05 4.05 0 1.56-.83 2.85-2.76 4.32-5.98 4.69-14.72 7.36-23.83 7.36-21.34 0-36.25-15.82-36.25-38.45s15.18-38.82 35.88-38.82c8.56 0 16.19 2.48 23.18 7.64zm48.67 27.23c13.52 4.05 20.42 11.41 20.42 21.53 0 12.79-10.4 20.88-26.59 20.88-10.12 0-20.24-3.59-26.68-9.57-1.84-1.75-2.67-3.13-2.67-4.6 0-1.93 1.84-3.77 3.86-3.77 1.38 0 1.66.18 3.96 2.3 4.97 4.69 13.98 8 21.89 8 4.78 0 9.38-1.1 11.68-2.76 3.4-2.39 5.43-6.25 5.43-10.21 0-7.36-4.78-11.78-16.93-15.55l-6.44-2.02c-13.8-4.32-19.69-10.03-19.69-19.13 0-12.14 9.66-19.96 24.65-19.96 10.86 0 23.73 5.52 23.73 10.12 0 1.93-1.84 3.86-3.68 3.86-.83 0-1.66-.28-2.67-1.01-4.97-3.59-11.41-5.7-17.66-5.7-4.78 0-9.66 1.56-12.33 3.96-2.12 1.84-3.22 4.69-3.22 8.09 0 6.44 3.96 9.84 15.92 13.43l6.99 2.12zm43.89 31.46c0 1.47.64 2.12 2.12 2.12h37.26c1.84 0 3.22 1.56 3.22 3.68s-1.38 3.77-3.22 3.77h-38.82c-5.89 0-8.92-3.13-8.92-9.02v-56.48c0-5.89 3.04-9.02 8.92-9.02h37.53c1.75 0 3.22 1.66 3.22 3.68s-1.38 3.68-3.22 3.68h-35.88c-1.47 0-2.21.74-2.21 2.3v22.54h33.76c1.75 0 3.13 1.47 3.13 3.5s-1.29 3.59-3.13 3.59h-33.76v25.67zM132.65 131.29v135.14L249.68 334l117.03-67.57V131.29L249.68 63.72l-117.03 67.57zm226.93 4.12v126.9l-109.9 63.45-109.9-63.45v-126.9l109.9-63.45 109.9 63.45z"/><path class="cls-2" d="M288.79 65.71l-3.56 6.18 92.19 53.22v106.76l.11.2h7.02V120.99l-95.76-55.28zm-72.27 261.51l-94.58-54.61V163.56h-7.13v113.17l98.14 56.67 3.57-6.18zm22.58-165.23c.3-2 1.6-3.1 3.5-3.1 2.1 0 3.5 1.4 3.4 3.3 0 .3 0 .6-.1.9l-2.7 17.9h20.3l2.9-19c.3-2 1.6-3.1 3.5-3.1 2.1 0 3.5 1.4 3.4 3.3 0 .3 0 .6-.1.9l-2.7 17.9H283c1.8 0 3.1 1.5 3.1 3.5s-1.3 3.5-3.1 3.5h-13.5l-4.7 30.9h12.9c1.8 0 3.1 1.5 3.1 3.5s-1.3 3.5-3.1 3.5h-13.9l-2.9 19.1c-.3 2-1.6 3.1-3.4 3.1-2.2 0-3.6-1.3-3.5-3.3 0-.2 0-.5.1-.9l2.7-18h-20.3l-2.9 19.1c-.3 2-1.6 3.1-3.4 3.1-2.2 0-3.6-1.3-3.5-3.3 0-.2 0-.5.1-.9l2.7-18H217c-1.8 0-3.1-1.5-3.1-3.5s1.3-3.5 3.1-3.5h13.6l4.6-30.9h-12.9c-1.8 0-3.1-1.5-3.1-3.5s1.3-3.5 3.1-3.5h13.9l2.9-19zm-1.6 56.9h20.4l4.6-30.9h-20.3l-4.7 30.9z"/></g></svg>